<svg width="228" height="50" viewBox="0 0 228 50" fill="none" xmlns="http://www.w3.org/2000/svg">
<g clip-path="url(#clip0_15:11529)">
<path d="M66.7145 22.305C68.2698 20.8727 70.1043 19.7775 72.1026 19.0883C74.0677 18.3874 76.1374 18.0253 78.2236 18.0175C80.0816 17.9777 81.9333 18.2466 83.7033 18.8133C85.0853 19.2643 86.3606 19.9931 87.4509 20.955C88.3987 21.8088 89.1416 22.8656 89.6244 24.0467C90.0922 25.2051 90.3311 26.4432 90.3282 27.6925V42.5175C90.3282 43.5397 90.349 44.4786 90.3906 45.3342C90.4322 46.1897 90.4933 47.0064 90.5738 47.7842H85.6895C85.5674 46.3147 85.5063 44.8453 85.5063 43.3759H85.3856C84.3435 45.0884 82.8357 46.4686 81.0384 47.355C79.2037 48.1646 77.2137 48.5615 75.2089 48.5175C73.9037 48.5237 72.6046 48.3384 71.3531 47.9675C70.184 47.6251 69.0924 47.0591 68.1386 46.3009C67.22 45.5661 66.4773 44.6351 65.965 43.5758C65.3711 42.225 65.1031 40.7532 65.1826 39.2795C65.2622 37.8058 65.6871 36.3715 66.4231 35.0925C67.2942 33.7959 68.4712 32.734 69.85 32.0009C71.4387 31.156 73.1546 30.5762 74.93 30.2842C76.9847 29.9329 79.0664 29.7642 81.1509 29.78H85.1899V28.555C85.1894 27.8008 85.0482 27.0532 84.7735 26.3509C84.4819 25.6076 84.0444 24.9304 83.4868 24.3592C82.879 23.7439 82.1483 23.264 81.3424 22.9508C80.365 22.5828 79.326 22.406 78.2819 22.43C77.3443 22.4153 76.4086 22.5175 75.4963 22.7342C74.7495 22.9215 74.0218 23.1782 73.3227 23.5008C72.6943 23.7922 72.0995 24.1513 71.5489 24.5717C71.0186 24.98 70.5079 25.3675 70.0165 25.7342L66.7145 22.305ZM82.2626 33.8217C80.9232 33.8231 79.5848 33.894 78.2528 34.0342C76.9743 34.158 75.7158 34.4378 74.5052 34.8675C73.4692 35.2227 72.5278 35.8098 71.7529 36.5842C71.3956 36.9584 71.1168 37.4004 70.933 37.8842C70.7492 38.3679 70.6641 38.8836 70.6827 39.4008C70.6827 41.0675 71.2379 42.2717 72.3483 43.0134C73.4587 43.755 74.9855 44.1231 76.9286 44.1175C78.2551 44.1551 79.5731 43.893 80.7844 43.3509C81.7806 42.8905 82.6592 42.2094 83.3536 41.3592C84 40.5541 84.4786 39.6275 84.761 38.6342C85.0373 37.6681 85.1774 36.6682 85.1774 35.6633V33.8259L82.2626 33.8217Z" fill="white"/>
<path d="M103.074 8.34137C103.066 7.39622 103.386 6.47753 103.979 5.74229C104.573 5.00706 105.403 4.5009 106.328 4.31033C107.254 4.11977 108.216 4.25663 109.052 4.6975C109.887 5.13837 110.544 5.8559 110.909 6.72748C111.275 7.59905 111.326 8.57056 111.055 9.47602C110.784 10.3815 110.208 11.1647 109.424 11.6918C108.639 12.2189 107.697 12.4571 106.757 12.3659C105.817 12.2746 104.937 11.8595 104.269 11.1914C103.886 10.8233 103.582 10.3805 103.376 9.89032C103.171 9.40012 103.068 8.87294 103.074 8.34137ZM104.361 18.758H109.882V47.7914H104.356L104.361 18.758Z" fill="white"/>
<path d="M124.618 1.48438H130.127V47.7885H124.618V1.48438Z" fill="white"/>
<path d="M148.606 35.292C148.593 36.4973 148.879 37.6871 149.439 38.7545C149.977 39.7792 150.717 40.6848 151.613 41.417C152.543 42.1712 153.601 42.7526 154.736 43.1336C155.917 43.5418 157.158 43.7488 158.408 43.7461C159.981 43.7837 161.532 43.3686 162.876 42.5503C164.204 41.6972 165.383 40.6316 166.365 39.3961L170.529 42.5794C167.476 46.5406 163.191 48.5211 157.675 48.5211C155.548 48.5513 153.436 48.1561 151.463 47.3586C149.681 46.6346 148.074 45.5379 146.749 44.1419C145.444 42.7466 144.433 41.1029 143.776 39.3086C143.069 37.3767 142.716 35.3327 142.735 33.2753C142.714 31.204 143.099 29.1486 143.868 27.2253C144.586 25.4256 145.647 23.7827 146.991 22.3878C148.338 21.0052 149.951 19.9108 151.733 19.1711C153.635 18.3828 155.676 17.9874 157.734 18.0086C160.304 18.0086 162.478 18.4572 164.254 19.3544C165.954 20.1925 167.448 21.3945 168.631 22.8753C169.781 24.3261 170.63 25.992 171.129 27.7753C171.637 29.5786 171.895 31.4433 171.895 33.317V35.2753L148.606 35.292ZM165.991 30.8836C165.963 29.7389 165.766 28.6045 165.408 27.517C165.079 26.5299 164.547 25.6228 163.846 24.8545C163.12 24.0778 162.232 23.4717 161.244 23.0795C160.083 22.6292 158.845 22.4112 157.6 22.4378C156.326 22.4237 155.063 22.6852 153.899 23.2044C152.831 23.6779 151.865 24.3543 151.055 25.1961C150.295 25.9892 149.682 26.9121 149.248 27.9211C148.833 28.8572 148.615 29.8683 148.606 30.892L165.991 30.8836Z" fill="white"/>
<path d="M184.054 18.7548H189.563V23.2256H189.683C190.055 22.4459 190.551 21.7323 191.153 21.1131C191.761 20.4828 192.45 19.9364 193.202 19.4881C193.987 19.028 194.826 18.6682 195.7 18.4173C196.573 18.149 197.481 18.0087 198.394 18.0006C199.225 17.9902 200.052 18.114 200.843 18.3673L200.576 24.3089C200.126 24.1881 199.677 24.084 199.231 24.0006C198.787 23.9202 198.337 23.8798 197.886 23.8798C195.194 23.8798 193.132 24.6353 191.703 26.1464C190.273 27.6575 189.558 30.0048 189.558 33.1881V47.7715H184.054V18.7548Z" fill="white"/>
<path d="M227.817 23.5324H219.905V36.6991C219.905 37.5158 219.926 38.3227 219.968 39.1199C219.994 39.8564 220.149 40.5826 220.426 41.2658C220.679 41.8826 221.104 42.4134 221.65 42.7949C222.378 43.2316 223.222 43.4351 224.069 43.3783C224.746 43.3763 225.422 43.315 226.089 43.1949C226.756 43.0819 227.398 42.8535 227.987 42.5199V47.5408C227.195 47.9512 226.334 48.2111 225.447 48.3074C224.646 48.4294 223.838 48.5004 223.028 48.5199C220.905 48.5199 219.263 48.2241 218.102 47.6324C217.042 47.1326 216.149 46.3349 215.533 45.3366C214.974 44.3722 214.64 43.2941 214.555 42.1824C214.452 41.0185 214.401 39.8449 214.401 38.6616V23.5324H208.046V18.7533H214.396V10.6074H219.905V18.7533H227.817V23.5324Z" fill="white"/>
<path d="M38.8078 0H11.1593C8.20239 0.00879316 5.36907 1.18811 3.2782 3.28036C1.18732 5.37261 0.00878738 8.20781 0 11.1667V38.8333C0.00878738 41.7922 1.18732 44.6274 3.2782 46.7197C5.36907 48.8119 8.20239 49.9912 11.1593 50H38.8078C41.7647 49.9912 44.5981 48.8119 46.6889 46.7197C48.7798 44.6274 49.9583 41.7922 49.9671 38.8333V11.1667C49.9583 8.20781 48.7798 5.37261 46.6889 3.28036C44.5981 1.18811 41.7647 0.00879316 38.8078 0ZM32.6327 39.0417C32.6433 39.6783 32.4581 40.3028 32.102 40.8305C31.746 41.3582 31.2364 41.7636 30.6423 41.9917C29.2849 42.575 28.0732 42.2708 27.0239 41.275C26.7139 40.9705 26.4723 40.6034 26.3151 40.1983C26.1579 39.7931 26.0886 39.359 26.112 38.925C26.112 35.9584 26.112 32.9875 26.112 30.0209C26.112 26.5584 23.5678 23.8708 20.2117 23.8292C17.4052 23.7917 14.8236 25.8042 14.3114 28.4375C13.7201 31.4375 15.1983 34.2708 17.9632 35.325C18.6541 35.5667 19.3764 35.7071 20.1076 35.7417C22.0188 35.8708 23.4387 37.2833 23.3763 39.075C23.3138 40.9875 21.9064 42.3 19.9244 42.2958C17.6737 42.2533 15.4764 41.603 13.5647 40.4137C11.653 39.2244 10.0979 37.5402 9.06403 35.5393C8.03011 33.5384 7.55573 31.2952 7.69104 29.0467C7.82635 26.7982 8.56632 24.6281 9.83272 22.7659C11.0991 20.9036 12.8449 19.4183 14.8854 18.4672C16.9259 17.516 19.1854 17.1343 21.4249 17.3623C23.6644 17.5903 25.8007 18.4197 27.6079 19.7626C29.4151 21.1056 30.8261 22.9123 31.6917 24.9917C32.3478 26.6008 32.6762 28.3247 32.6577 30.0625C32.6577 31.4 32.6577 32.7417 32.6577 34.0792C32.641 35.7292 32.6743 37.3875 32.6327 39.0417ZM42.064 39.0167C42.085 39.7872 41.8241 40.5388 41.3303 41.1304C40.8365 41.7219 40.1438 42.1127 39.3824 42.2292C38.6666 42.3563 37.9289 42.2379 37.2888 41.893C36.6486 41.5482 36.1436 40.9971 35.8556 40.3292C35.6693 39.7939 35.5819 39.2291 35.5974 38.6625C35.5724 35.6958 35.5974 32.7333 35.5974 29.7667C35.5974 26.6958 35.5974 23.6292 35.5974 20.5583C35.5913 19.8747 35.8027 19.2069 36.201 18.6515C36.5994 18.096 37.164 17.6819 37.8132 17.4689C38.4624 17.2559 39.1625 17.2552 39.8122 17.4668C40.4618 17.6783 41.0274 18.0913 41.4269 18.6458C41.8024 19.2074 42.0143 19.8624 42.039 20.5375C42.089 26.6833 42.0848 32.85 42.064 39.0167ZM38.8245 14.8083C38.1225 14.8116 37.4352 14.6065 36.8498 14.2188C36.2644 13.831 35.8071 13.2783 35.5358 12.6304C35.2645 11.9825 35.1914 11.2686 35.3257 10.5791C35.46 9.8896 35.7958 9.25549 36.2904 8.75702C36.785 8.25854 37.4164 7.91813 38.1045 7.77885C38.7925 7.63958 39.5064 7.70771 40.1558 7.97462C40.8052 8.24154 41.3608 8.69523 41.7524 9.27828C42.1439 9.86134 42.3538 10.5475 42.3555 11.25C42.3616 11.7169 42.2746 12.1803 42.0996 12.6131C41.9246 13.046 41.6652 13.4395 41.3364 13.7709C41.0076 14.1022 40.6161 14.3646 40.1848 14.5427C39.7535 14.7209 39.2911 14.8112 38.8245 14.8083Z" fill="white"/>
</g>
<defs>
<clipPath id="clip0_15:11529">
<rect width="228" height="50" fill="white"/>
</clipPath>
</defs>
</svg>
