<svg width="20" height="20" viewBox="0 0 20 20" fill="none" xmlns="http://www.w3.org/2000/svg">
<path fill-rule="evenodd" clip-rule="evenodd" d="M10.1169 8.94692e-05H9.61693C8.14208 -0.00366514 6.68472 0.341523 5.36607 1.00758C2.15179 2.61401 0.118318 5.90218 0.116926 9.49979L0.123219 9.86813C0.163813 10.9716 0.399414 12.0595 0.81816 13.0807L0.923926 13.3252L0.228596 15.0033C-0.0843566 15.7584 -0.0756534 16.6085 0.252693 17.357L0.328166 17.5164C1.04434 18.9219 2.74201 19.541 4.20512 18.8992L5.80293 18.1972L6.03643 18.2989C7.17113 18.7642 8.38839 19.0034 9.61953 19.0002C13.2149 18.9988 16.5031 16.9653 18.1114 13.7472C18.7756 12.4324 19.1208 10.975 19.117 9.49761L19.117 9.00017C18.8542 4.21071 15.1382 0.410916 10.4391 0.020075L10.1169 8.94692e-05ZM9.61438 2.00009L10.0749 1.99917L10.0618 1.99857C13.8687 2.20867 16.9084 5.2484 17.1185 9.05527L17.117 9.50017C17.12 10.6652 16.8484 11.8118 16.3243 12.8493C15.0527 15.3937 12.4568 16.9991 9.61654 17.0002C8.45195 17.0032 7.30531 16.7316 6.26778 16.2076C6.0013 16.073 5.68862 16.0645 5.41522 16.1844L3.40171 17.0676C2.89594 17.2895 2.30609 17.0593 2.08423 16.5536C1.97478 16.3041 1.97188 16.0207 2.0762 15.769L2.94073 13.683C3.05229 13.4139 3.0409 13.1094 2.90952 12.8493C2.38547 11.8118 2.11389 10.6651 2.11692 9.50278C2.11802 6.66035 3.7234 4.06442 6.26398 2.79468C7.30528 2.26873 8.45194 1.99713 9.61438 2.00009Z" fill="white"/>
</svg>
